<svg width="24" height="26" viewBox="0 0 24 26" fill="none" xmlns="http://www.w3.org/2000/svg">
<g id="shopping-cart">
<path id="Combined Shape" fill-rule="evenodd" clip-rule="evenodd" d="M4.00004 0.25C4.37974 0.25 4.69353 0.532154 4.74319 0.898229L4.75004 1L4.74993 2.96832L22.7201 4.25191C23.1207 4.28052 23.4213 4.61715 23.4168 5.00751L23.4092 5.10607L22.0758 14.4394C22.0279 14.7753 21.762 15.0326 21.4336 15.0767L21.3334 15.0833H4.74925L4.74904 18.916L18.6667 18.9167C19.0464 18.9167 19.3602 19.1988 19.4099 19.5649L19.4167 19.6667C19.4167 20.0464 19.1346 20.3602 18.7685 20.4098L18.6667 20.4167H6.82888C7.19991 20.9632 7.41671 21.623 7.41671 22.3333C7.41671 24.2203 5.88701 25.75 4.00004 25.75C2.11307 25.75 0.583374 24.2203 0.583374 22.3333C0.583374 20.704 1.72383 19.3411 3.25 18.9993L3.24904 1.75H1.33337C0.953678 1.75 0.639883 1.46785 0.590221 1.10177L0.583374 1C0.583374 0.620304 0.865528 0.306509 1.2316 0.256847L1.33337 0.25H4.00004ZM4.74934 13.5833L20.682 13.583L21.81 5.691L4.74985 4.47215L4.74934 13.5833ZM2.08337 22.3333C2.08337 21.2748 2.94149 20.4167 4.00004 20.4167C5.05859 20.4167 5.91671 21.2748 5.91671 22.3333C5.91671 23.3919 5.05859 24.25 4.00004 24.25C2.94149 24.25 2.08337 23.3919 2.08337 22.3333Z" fill="#343537"/>
<path id="Oval" fill-rule="evenodd" clip-rule="evenodd" d="M18.6667 18.9167C16.7797 18.9167 15.25 20.4464 15.25 22.3333C15.25 24.2203 16.7797 25.75 18.6667 25.75C20.5536 25.75 22.0833 24.2203 22.0833 22.3333C22.0833 20.4464 20.5536 18.9167 18.6667 18.9167ZM18.6667 20.4167C19.7252 20.4167 20.5833 21.2748 20.5833 22.3333C20.5833 23.3919 19.7252 24.25 18.6667 24.25C17.6081 24.25 16.75 23.3919 16.75 22.3333C16.75 21.2748 17.6081 20.4167 18.6667 20.4167Z" fill="#343537"/>
</g>
</svg>
