<svg width="22" height="27" viewBox="0 0 22 27" fill="none" xmlns="http://www.w3.org/2000/svg">
<g id="Location">
<path id="Combined Shape" fill-rule="evenodd" clip-rule="evenodd" d="M10.9956 -0.00371552C4.93785 -0.00371552 0.0302734 4.9459 0.0302734 11.0474C0.0302734 14.5101 1.82102 18.1204 4.71424 21.3782C5.50237 22.2657 6.34759 23.0907 7.16679 23.7913L7.61054 24.1607C9.00443 25.2893 10.2756 26.0131 10.9956 26.0131C11.6014 26.0131 12.5983 25.4997 13.7303 24.6636L14.1607 24.3354C14.8868 23.7643 15.6533 23.0765 16.3975 22.3185L16.8409 21.8557C16.9875 21.6989 17.1326 21.5396 17.2759 21.3783C20.1698 18.1202 21.961 14.5101 21.961 11.0474C21.961 4.94636 17.0525 -0.00371552 10.9956 -0.00371552ZM10.9956 1.49628C16.2212 1.49628 20.461 5.77196 20.461 11.0474C20.461 14.08 18.8272 17.3731 16.1544 20.3821L15.759 20.8155C15.2251 21.3856 14.6678 21.9225 14.1283 22.4012L13.7278 22.7489L13.3377 23.0724C13.2099 23.176 13.0845 23.2751 12.9621 23.3694L12.6049 23.6375L12.2697 23.8743L11.9607 24.0775C11.5185 24.356 11.1772 24.5131 10.9956 24.5131C10.7732 24.5131 10.3125 24.2785 9.72069 23.8745L9.38551 23.6377L9.02818 23.3696L8.65257 23.0727C8.58866 23.0209 8.52414 22.968 8.45911 22.9141L8.06331 22.5782C7.99652 22.5202 7.92937 22.4613 7.86194 22.4014L7.45465 22.0319C7.18175 21.7788 6.90696 21.5126 6.63544 21.2366L6.23124 20.8156C6.09775 20.6731 5.96573 20.5285 5.8358 20.3822C3.16373 17.3734 1.53027 14.0802 1.53027 11.0474C1.53027 5.77147 5.76915 1.49628 10.9956 1.49628ZM10.9956 6.80651C8.70081 6.80651 6.8405 8.66682 6.8405 10.9616C6.8405 13.2564 8.70081 15.1167 10.9956 15.1167C13.2904 15.1167 15.1507 13.2564 15.1507 10.9616C15.1507 8.66682 13.2904 6.80651 10.9956 6.80651ZM10.9956 8.30651C12.462 8.30651 13.6507 9.49525 13.6507 10.9616C13.6507 12.428 12.462 13.6167 10.9956 13.6167C9.52923 13.6167 8.3405 12.428 8.3405 10.9616C8.3405 9.49525 9.52923 8.30651 10.9956 8.30651Z" fill="#343537"/>
</g>
</svg>
