<svg width="32" height="32" viewBox="0 0 32 32" fill="none" xmlns="http://www.w3.org/2000/svg">
<g id="Icons / 32px / Phone">
<path id="Phone" fill-rule="evenodd" clip-rule="evenodd" d="M8.25661 3.04947C7.45997 3.04621 6.6892 3.33479 6.09059 3.86044L5.98682 3.9569L5.90575 4.0186C5.41882 4.4002 4.89466 4.93819 4.41431 5.64663C3.70787 6.68853 3.23537 7.91002 3.09485 9.3078C2.72212 13.0157 4.71062 17.3592 9.68135 22.3402C16.7612 29.4253 22.4352 30.3579 26.5036 27.4979L26.7301 27.3332C27.3136 26.8944 27.7333 26.4614 27.9954 26.1193L28.0489 26.045L27.9994 26.0995C28.6641 25.4288 29.0068 24.5037 28.9394 23.5619C28.8721 22.62 28.4013 21.753 27.6479 21.1837L24.6573 18.9364L24.4921 18.82C23.206 17.9716 21.4871 18.1365 20.3856 19.2399L18.7079 20.92L18.6163 20.8901C18.4377 20.8265 18.2054 20.7265 17.9201 20.5773C16.9271 20.0579 15.7226 19.1398 14.3094 17.7245C12.8962 16.3092 11.9794 15.103 11.4607 14.1086L11.3771 13.9434C11.2991 13.7847 11.2379 13.6449 11.1908 13.5241L11.1169 13.317L12.796 11.6362C13.9452 10.4853 14.0744 8.66469 13.0992 7.3629L10.8575 4.35954C10.2897 3.59978 9.42003 3.12474 8.47441 3.05764L8.25661 3.04947ZM8.36116 4.65363C8.84309 4.68783 9.28633 4.92993 9.57555 5.31695L11.8178 8.32108C12.317 8.98738 12.251 9.9176 11.6637 10.5057L9.44471 12.7286L9.45522 13.0837C9.47315 13.4895 9.63904 14.0757 10.0421 14.8485C10.6406 15.9959 11.655 17.3305 13.1772 18.8551C14.6996 20.3797 16.0324 21.3956 17.1786 21.9951C17.8735 22.3585 18.4175 22.5295 18.8066 22.5729L18.9528 22.5834L19.2984 22.5937L21.5179 20.3703C22.104 19.7832 23.0329 19.7172 23.6961 20.2155L26.685 22.4615C27.0684 22.7513 27.3091 23.1944 27.3435 23.676C27.3779 24.1575 27.2027 24.6304 26.8629 24.9732L26.776 25.0773L26.7064 25.1674L26.5842 25.3089C26.5595 25.3364 26.5326 25.3656 26.5035 25.3965C26.2508 25.6649 25.9439 25.9356 25.5835 26.189C22.1973 28.5693 17.3758 27.7768 10.8135 21.2096C6.15393 16.5404 4.36801 12.6394 4.68683 9.46783C4.79952 8.34685 5.17535 7.37526 5.7386 6.54455C6.11865 5.98404 6.52867 5.5632 6.88437 5.28437L6.9506 5.23422L7.06527 5.13881C7.40624 4.79651 7.87922 4.61943 8.36116 4.65363Z" fill="#343537"/>
</g>
</svg>
