<svg width="24" height="24" viewBox="0 0 24 24" fill="none" xmlns="http://www.w3.org/2000/svg">
<g id="Group Copy">
<path id="Combined Shape" fill-rule="evenodd" clip-rule="evenodd" d="M12 23C12.4694 23 12.85 22.6417 12.85 22.1997V12.85L22.1997 12.85L22.3001 12.8434C22.6947 12.7909 23 12.4333 23 12C23 11.5306 22.6417 11.15 22.1997 11.15L12.85 11.15L12.85 1.80028L12.8434 1.6999C12.7909 1.3053 12.4333 0.999999 12 0.999999C11.5306 0.999999 11.15 1.3583 11.15 1.80028L11.15 11.15L1.80029 11.15L1.6999 11.1566C1.3053 11.2091 1 11.5667 1 12C0.999999 12.4694 1.3583 12.85 1.80029 12.85L11.15 12.85V22.1997L11.1566 22.3001C11.2091 22.6947 11.5667 23 12 23Z" fill="#343537"/>
</g>
</svg>
