<svg width="20" height="20" viewBox="0 0 20 20" fill="none" xmlns="http://www.w3.org/2000/svg">
<g id="Search Copy">
<path id="Shape" fill-rule="evenodd" clip-rule="evenodd" d="M9.61137 -0.000183105C4.30337 -0.000183105 0.000366211 4.20782 0.000366211 9.39982C0.000366211 14.5898 4.30337 18.7988 9.61137 18.7988C11.8814 18.7988 13.9684 18.0288 15.6134 16.7408L18.7374 19.7888L18.8204 19.8588C19.1104 20.0688 19.5214 20.0448 19.7844 19.7868C19.9224 19.6523 20 19.4676 19.9996 19.2749C19.9993 19.0822 19.9209 18.8978 19.7824 18.7638L16.6954 15.7518C18.3182 14.0346 19.2227 11.7616 19.2234 9.39882C19.2234 4.20982 14.9204 -0.000183105 9.61237 -0.000183105H9.61137ZM9.61137 1.44782C14.1024 1.44782 17.7434 5.00782 17.7434 9.39882C17.7434 13.7908 14.1034 17.3508 9.61237 17.3508C5.12137 17.3508 1.48037 13.7898 1.48037 9.39882C1.48037 5.00782 5.12037 1.44782 9.61137 1.44782Z" fill="#343537"/>
</g>
</svg>
