<svg width="14" height="14" viewBox="0 0 14 14" fill="none" xmlns="http://www.w3.org/2000/svg">
<g id="Group">
<path id="Combined Shape" fill-rule="evenodd" clip-rule="evenodd" d="M13.196 0.803975C12.947 0.555016 12.5434 0.555016 12.2944 0.803976L6.99993 6.09844L1.70547 0.803976L1.64541 0.750943C1.39533 0.55649 1.03372 0.574167 0.803907 0.803976C0.554948 1.05293 0.554948 1.45658 0.803907 1.70554L6.09837 7L0.803907 12.2945L0.750874 12.3545C0.556421 12.6046 0.574098 12.9662 0.803907 13.196C1.05287 13.445 1.45651 13.445 1.70547 13.196L6.99993 7.90156L12.2944 13.196L12.3544 13.2491C12.6045 13.4435 12.9661 13.4258 13.196 13.196C13.4449 12.9471 13.4449 12.5434 13.196 12.2945L7.90149 7L13.196 1.70554L13.249 1.64548C13.4434 1.39539 13.4258 1.03378 13.196 0.803975Z" fill="#343537"/>
</g>
</svg>
